<svg width="24" height="24" viewBox="0 0 24 24" fill="none" xmlns="http://www.w3.org/2000/svg">
<mask id="mask0_234_11740" style="mask-type:alpha" maskUnits="userSpaceOnUse" x="0" y="0" width="24" height="24">
<rect width="24" height="24" fill="#D9D9D9"/>
</mask>
<g mask="url(#mask0_234_11740)">
<path d="M14 20V19.425C14 19.025 14.1083 18.6583 14.325 18.325C14.5417 17.9917 14.8417 17.7417 15.225 17.575C15.6917 17.3917 16.1458 17.25 16.5875 17.15C17.0292 17.05 17.525 17 18.075 17C18.5583 17 19.0333 17.05 19.5 17.15C19.9667 17.25 20.3917 17.3917 20.775 17.575C21.1583 17.7417 21.4583 17.9917 21.675 18.325C21.8917 18.6583 22 19.025 22 19.425V20H14ZM18 16C17.45 16 16.9792 15.8042 16.5875 15.4125C16.1958 15.0208 16 14.55 16 14C16 13.45 16.1958 12.9792 16.5875 12.5875C16.9792 12.1958 17.45 12 18 12C18.55 12 19.0208 12.1958 19.4125 12.5875C19.8042 12.9792 20 13.45 20 14C20 14.55 19.8042 15.0208 19.4125 15.4125C19.0208 15.8042 18.55 16 18 16ZM5 21C4.45 21 3.97917 20.8042 3.5875 20.4125C3.19583 20.0208 3 19.55 3 19V5C3 4.45 3.19583 3.97917 3.5875 3.5875C3.97917 3.19583 4.45 3 5 3H19C19.55 3 20.0208 3.19583 20.4125 3.5875C20.8042 3.97917 21 4.45 21 5V10.65C20.6833 10.5 20.3583 10.3792 20.025 10.2875C19.6917 10.1958 19.35 10.125 19 10.075V5H5V14H9.2C9.35 14.45 9.6 14.8417 9.95 15.175C10.3 15.5083 10.6917 15.7417 11.125 15.875C10.9917 16.775 11.0167 17.6667 11.2 18.55C11.3833 19.4333 11.7417 20.25 12.275 21H5ZM7 8.75H17V6.75H7V8.75ZM7 12.25H12.925C13.375 11.7667 13.8792 11.3583 14.4375 11.025C14.9958 10.6917 15.6 10.4333 16.25 10.25H7V12.25Z" fill="black"/>
</g>
</svg>
