<svg width="24" height="24" viewBox="0 0 24 24" fill="none" xmlns="http://www.w3.org/2000/svg">
<mask id="mask0_234_11758" style="mask-type:alpha" maskUnits="userSpaceOnUse" x="0" y="0" width="24" height="24">
<rect width="24" height="24" fill="#D9D9D9"/>
</mask>
<g mask="url(#mask0_234_11758)">
<path d="M14.9055 19.5C12.8107 19.5 11.0363 18.773 9.58225 17.319C8.12842 15.8652 7.4015 14.0907 7.4015 11.9957C7.4015 9.91658 8.12842 8.1475 9.58225 6.6885C11.0363 5.2295 12.8107 4.5 14.9055 4.5C16.9848 4.5 18.7539 5.2295 20.2128 6.6885C21.6718 8.1475 22.4013 9.91658 22.4013 11.9957C22.4013 14.0907 21.6718 15.8652 20.2128 17.319C18.7539 18.773 16.9848 19.5 14.9055 19.5ZM17.2725 15.4653L18.3418 14.3963L15.6513 11.7058V8.15375H14.1513V12.3192L17.2725 15.4653ZM2.59375 8.75V7.25H6.4015V8.75H2.59375ZM1.59375 12.75V11.25H6.4015V12.75H1.59375ZM2.59375 16.75V15.25H6.4015V16.75H2.59375Z" fill="black"/>
</g>
</svg>
